<?xml version="1.0" encoding="UTF-8" standalone="no"?>
<!-- Created with Inkscape (http://www.inkscape.org/) -->

<svg
   version="1.1"
   id="svg1"
   width="99.192528"
   height="99.088669"
   viewBox="0 0 99.192527 99.088667"
   sodipodi:docname="logo.svg"
   inkscape:version="1.4.3 (0d15f75, 2025-12-25)"
   xmlns:inkscape="http://www.inkscape.org/namespaces/inkscape"
   xmlns:sodipodi="http://sodipodi.sourceforge.net/DTD/sodipodi-0.dtd"
   xmlns="http://www.w3.org/2000/svg"
   xmlns:svg="http://www.w3.org/2000/svg">
  <defs
     id="defs1" />
  <sodipodi:namedview
     id="namedview1"
     pagecolor="#ffffff"
     bordercolor="#000000"
     borderopacity="0.25"
     inkscape:showpageshadow="2"
     inkscape:pageopacity="0.0"
     inkscape:pagecheckerboard="0"
     inkscape:deskcolor="#d1d1d1"
     inkscape:zoom="9.34072"
     inkscape:cx="79.115957"
     inkscape:cy="35.382712"
     inkscape:window-width="3840"
     inkscape:window-height="2054"
     inkscape:window-x="3189"
     inkscape:window-y="-11"
     inkscape:window-maximized="1"
     inkscape:current-layer="g1">
    <inkscape:page
       x="8.114722e-08"
       y="2.2438005e-08"
       id="page1"
       width="99.192528"
       height="99.088669"
       margin="0"
       bleed="0" />
  </sodipodi:namedview>
  <g
     id="g1"
     inkscape:groupmode="layer"
     inkscape:label=""
     transform="translate(-165.91731,-7.2079998)">
    <path
       id="path1"
       d="m 196.324,53.559 -12.957,-5.801 h -0.414 l -0.031,0.031 -6.992,7.016 -18.27,-14.782 h -0.015 l -0.047,-0.035 h -0.481 l -11.34,12.801 -9.679,-5.223 h -0.399 l -0.031,0.032 h -0.035 l -8.141,7.605 c -1.5,-4.047 -2.265,-8.324 -2.258,-12.641 0,-1.71 0.118,-3.417 0.356,-5.113 l 14.316,-8.039 5.742,3.738 0.114,0.051 h 0.109 c 0.082,-0.004 0.16,-0.031 0.227,-0.082 l 16.746,-12.066 18.14,13.281 c 0.075,0.055 0.164,0.082 0.258,0.082 h 0.094 l 9.918,-2.734 6.16,4.203 c 1.09,5.887 0.719,11.949 -1.09,17.66 z m -1.39,3.675 -2.957,-2.429 -6.207,-5.098 9.003,4.027 1.313,0.59 c -0.352,0.977 -0.734,1.949 -1.152,2.91 z m -3.789,6.598 -6.336,-7.668 c -0.063,-0.082 -0.157,-0.133 -0.258,-0.144 l -7.727,-0.942 6.403,-6.426 7.277,5.977 4.078,3.355 c -0.961,2.051 -2.113,4.012 -3.437,5.848 z m -9.407,9.031 -6.816,-11.539 -0.031,-0.047 -14.766,-18.234 15.582,12.641 0.078,0.046 h 0.016 l 0.097,0.032 8.383,1.008 6.367,7.703 c -2.476,3.277 -5.488,6.117 -8.91,8.39 z m -20.109,6.059 c -10.383,-0.004 -20.27,-4.434 -27.18,-12.18 l 14.832,-16.668 8.125,-9.125 16.844,20.809 6.816,11.539 c -5.812,3.676 -12.554,5.629 -19.437,5.625 z m -31.371,-17.934 5.84,-12.527 9.132,4.953 -11.308,12.723 c -1.367,-1.61 -2.594,-3.328 -3.664,-5.149 z m 3.586,-10.609 0.832,-0.785 -4.914,10.547 c -0.735,-1.336 -1.387,-2.719 -1.95,-4.137 z M 161.629,6.207 c 17.117,0 31.914,11.938 35.547,28.539 l -5.633,-3.848 c -0.098,-0.066 -0.223,-0.086 -0.336,-0.05 l -9.902,2.734 -18.203,-13.312 -0.114,-0.067 h -0.129 l -0.175,0.051 -0.047,0.031 -16.782,12.051 -5.71,-3.727 -0.094,-0.047 h -0.113 c -0.075,-0.003 -0.145,0.016 -0.208,0.047 l -13.984,7.832 C 128.691,19.148 143.969,6.207 161.629,6.207 Z m 36.535,29.355 C 194.824,18.094 179.465,5.406 161.629,5.406 c -18.445,0 -34.102,13.508 -36.793,31.739 -0.262,1.793 -0.398,3.605 -0.398,5.417 -0.008,8.989 3.253,17.672 9.179,24.434 13.508,15.461 37.004,17.059 52.481,3.563 9.964,-8.692 14.562,-22.016 12.066,-34.997"
       style="fill:#ffffff;fill-opacity:1;fill-rule:nonzero;stroke:none;stroke-width:2.25;stroke-dasharray:none"
       transform="scale(1.3333333)" />
  </g>
</svg>
